<svg xmlns="http://www.w3.org/2000/svg" width="272.103" height="67.731" viewBox="0 0 71.994 17.92"><g aria-label="Destriant" style="line-height:0;-inkscape-font-specification:'Kaushan Script'" font-weight="400" font-size="22.578" font-family="Ruthie" letter-spacing="0" word-spacing="0" stroke-width=".4" fill="#fff" stroke="#fff"><path d="M20.949 9.502c0-1.67-.655-3.07-1.987-4.267-1.174-1.039-2.641-1.739-4.357-2.01.79-1.038 1.648-1.58 2.596-1.58.361 0 .745.113 1.106.293.407.226.655.497.745.813.046.203.113.294.181.294.023 0 .045-.023.045-.09a1.78 1.78 0 0 0-.09-.542 1.939 1.939 0 0 0-.835-1.016 2.654 2.654 0 0 0-1.31-.362c-1.151 0-2.213.7-3.274 2.078a14.407 14.407 0 0 0-3.319-.317c.023-1.016-.022-1.828-.135-2.483C10.292.245 10.27.2 10.247.2c-.045 0-.09.045-.09.158 0 .136 0 .339.022.61.023.293.023.474.023.632 0 .406-.023.79-.045 1.196-3.32.113-5.758.994-7.36 2.687-.542.565-.79 1.152-.79 1.806 0 .858.383 1.626 1.173 2.303.723.633 1.513.971 2.394 1.039l.045.023c.113 0 .158-.046.158-.113 0-.046-.045-.068-.113-.09-.474-.091-.836-.204-1.061-.317-1.242-.564-1.83-1.422-1.83-2.551 0-.655.272-1.287.814-1.874 1.467-1.558 3.635-2.393 6.547-2.551a26.407 26.407 0 0 1-1.219 6.05c-.768 2.303-1.693 4.132-2.822 5.464-1.49-.61-2.687-.925-3.522-.925-.61 0-1.13.113-1.558.36-.542.294-.813.7-.813 1.265s.294 1.084.88 1.558c.542.43 1.084.7 1.671.745.249.023.542.045.836.045 1.874 0 3.296-.632 4.312-1.919 1.829.745 3.567 1.13 5.17 1.13 1.58 0 3.026-.385 4.313-1.13 1.264-.745 2.235-1.829 2.89-3.228.451-.971.677-2.01.677-3.07zm-1.287.226c0 1.964-.632 3.612-1.92 4.922-1.286 1.287-2.912 1.919-4.898 1.919-1.445 0-3.026-.339-4.72-1.061.678-.768 1.4-1.897 2.146-3.432 1.129-2.235 1.874-3.974 2.393-5.148.7-1.58 1.31-2.71 1.761-3.41 1.468.272 2.71.994 3.725 2.191 1.016 1.197 1.513 2.529 1.513 4.019zm-6.096-6.345c-.677.7-1.49 2.078-2.46 4.177-.7 1.536-1.356 3.094-2.1 4.629-.655 1.422-1.288 2.416-1.784 2.935l-.768-.294c1.152-1.377 2.077-3.206 2.822-5.531.655-2.1 1.039-4.154 1.152-6.164h.474c.926 0 1.806.09 2.664.248zM7.041 15.44c-.339.52-.926.948-1.716 1.31a5.347 5.347 0 0 1-2.145.474c-.61 0-1.174-.181-1.716-.542-.61-.407-.903-.903-.903-1.468 0-.451.226-.767.655-.993a2.858 2.858 0 0 1 1.22-.271c.925 0 2.099.316 3.499.948-1.016 1.129-2.055 1.716-3.093 1.716-.271 0-.384.045-.384.113 0 .09.135.158.429.158 1.174 0 2.303-.61 3.386-1.829zm21.223-2.754c0-.023 0-.046-.022-.046-.09 0-.204.113-.34.316a6.652 6.652 0 0 1-1.58 1.807c-.767.61-1.49.903-2.167.903-.903 0-1.355-.632-1.355-1.874 0-.361.068-.7.18-1.039.859-.067 1.762-.429 2.71-1.106 1.039-.745 1.558-1.535 1.558-2.326 0-.338-.113-.61-.361-.812-.226-.204-.52-.294-.858-.294-.248 0-.61.09-1.061.271-.52.203-.79.384-.79.587 0 .023.022.023.045.023.022 0 .248-.113.632-.362.384-.225.722-.338 1.016-.338.203 0 .384.09.497.27.112.181.18.384.18.61 0 .7-.384 1.423-1.174 2.123-.79.7-1.535 1.038-2.258 1.038l-.045-.045c.226-.61.587-1.242 1.107-1.897.496-.654 1.016-1.106 1.557-1.4.204-.112.317-.203.317-.225 0-.045-.09-.068-.249-.068-.7 0-1.467.407-2.258 1.22-.745.744-1.196 1.49-1.354 2.235-.203-.068-.339-.136-.452-.181.113.248.249.406.361.497a7.617 7.617 0 0 0-.158 1.49c0 1.377.542 2.077 1.603 2.077.79 0 1.649-.339 2.574-1.016.836-.61 1.49-1.287 1.965-2.032.112-.203.18-.339.18-.406z" style="-inkscape-font-specification:Ruthie"/><path d="M34.202 12.437c0-.068-.023-.09-.068-.09-.045 0-.09.022-.135.09-.294.43-.542.745-.723.903-.27.226-.61.384-1.038.452 0-.52-.113-1.13-.316-1.852l-.542-1.806a1.252 1.252 0 0 1-.068-.384c0-.338.136-.587.384-.79.248-.203.542-.293.88-.293h.181c.09.022.158.022.18.022.204 0 .294-.045.294-.158 0-.158-.113-.27-.316-.384-.203-.113-.361-.158-.52-.158-.722 0-1.331.407-1.85 1.22-.836 1.332-1.468 2.506-1.92 3.567-.158-.226-.316-.339-.451-.339-.249 0-.361.226-.361.7 0 .7.27 1.355.835 1.964.564.587 1.197.88 1.919.88.52 0 .926-.18 1.22-.564.27-.338.428-.767.473-1.31.768-.157 1.4-.676 1.897-1.512.045-.068.045-.113.045-.158zm-2.867 1.332c0 .113 0 .203-.023.316a3.59 3.59 0 0 1-1.31-.36c-.248-.114-.654-.34-1.219-.656.88-1.738 1.513-2.822 1.92-3.25-.068.338.022.97.248 1.896.248.993.384 1.67.384 2.054zm-.045.587c-.204.587-.588.88-1.197.88-.339 0-.677-.18-1.016-.564-.339-.36-.52-.722-.542-1.06.632.496 1.558.744 2.755.744z" style="-inkscape-font-specification:Ruthie"/><path d="M41.766 8.44c0-.022-.023-.044-.09-.044-.046 0-.136.022-.25.045-1.738.61-2.844.993-3.295 1.129l.27-.542.384-.361c.068-.068.384-.745.949-1.987.564-1.242.835-1.874.835-1.897 0-.158-.158-.225-.474-.225-.474 0-.768.135-.88.406l-.655 1.513-1.49 3.296-.023.045c-.88.18-1.716.271-2.506.271h-.61c-.203.045-.316.18-.316.429 0 .226.09.384.294.474.406.18.812.316 1.219.497.474.203.767.542.903.926-.339.993-.497 1.806-.497 2.46 0 .926.384 1.378 1.129 1.378.339 0 .813-.249 1.422-.723.52-.406.904-.79 1.152-1.151a.52.52 0 0 0 .068-.203c0-.046-.023-.068-.068-.068l-1.016.88c-.655.565-1.197.858-1.603.858-.339 0-.497-.248-.497-.745 0-.835.18-1.716.587-2.686.203-.497.632-1.333 1.242-2.507 2.551-.722 3.816-1.219 3.816-1.467zm-4.877 1.762c-.294.677-.565 1.31-.768 1.896-.226-.564-.722-1.038-1.513-1.444a28.768 28.768 0 0 0 2.28-.452z" style="-inkscape-font-specification:Ruthie"/><path d="M45.942 10.518c0-.632-.248-.948-.722-.948s-1.152.451-2.01 1.377c-.316.339-.88 1.016-1.693 2.032.7-1.603 1.039-2.935 1.039-3.996 0-.61-.113-.903-.361-.903-.204 0-.362.203-.452.587-.203.812-.677 1.874-1.49 3.183l-.7 1.106c-.023.023-.023.046-.023.068 0 .068.046.09.113.09.023 0 .045 0 .045-.022.249-.316.633-.88 1.107-1.716.496-.858.813-1.422.903-1.738 0 .722-.068 1.354-.226 1.896-.316 1.152-.768 2.28-1.31 3.432-.112.226-.18.429-.27.61 0 .09.09.18.248.293.158.09.293.135.406.135a.17.17 0 0 0 .113-.045l.226-.654.745-1.942c.294-.52.768-1.152 1.445-1.92.813-.902 1.377-1.377 1.761-1.377.248 0 .384.204.384.61 0 .294-.09.61-.248.97-.158.362-.249.543-.249.565 0 .068.023.09.068.09.226 0 .497-.203.79-.632.249-.338.361-.722.361-1.151zm4.222 2.168c0-.046-.022-.068-.045-.068.023 0-.316.384-.993 1.174-.655.79-1.264 1.174-1.784 1.174-.338 0-.496-.248-.496-.745 0-.723.383-1.874 1.174-3.455.112-.045.248-.225.406-.519.135-.293.203-.52.203-.677 0-.158-.135-.226-.384-.226-.293 0-.496.068-.564.203a7.833 7.833 0 0 0-.497 1.061c-.429.926-.813 1.626-1.196 2.145a.542.542 0 0 0-.136.339c0 .045.023.068.045.068.068 0 .203-.158.407-.497l.406-.632c-.293.858-.451 1.58-.451 2.167 0 .768.383 1.152 1.151 1.152.361 0 .858-.339 1.513-.994.519-.542.925-1.038 1.196-1.512a.92.92 0 0 0 .045-.158zm-.022-6.39c0-.023-.023-.045-.068-.045-.135 0-.451.135-.97.384-.159.067-.317.225-.52.451-.18.203-.27.384-.27.542 0 .316.157.474.45.474.204 0 .384-.158.52-.451l.339-.7c.338-.384.519-.61.519-.655z" style="-inkscape-font-specification:Ruthie"/><path d="M57.525 12.776c0-.068-.023-.09-.068-.09-.045 0-.113.067-.203.18-1.31 1.897-2.19 2.845-2.71 2.845-.383 0-.564-.429-.564-1.287 0-1.174.226-2.28.655-3.342.835-.632 1.264-1.264 1.264-1.896 0-.52-.293-.768-.88-.768-1.242 0-2.484.7-3.726 2.1-1.241 1.377-1.851 2.71-1.851 3.974 0 .79.316 1.196.926 1.196 1.016 0 1.987-1.06 2.935-3.16-.158.654-.226 1.219-.226 1.67 0 .452.09.858.27 1.197.227.429.543.632.95.632.744 0 1.783-1.016 3.138-3.025.067-.09.09-.158.09-.226zm-2.303-3.432c0 .316-.113.632-.361.97.067-.202.113-.383.113-.496 0-.135-.046-.203-.136-.203-.248 0-.52.203-.813.632-.293.407-.451.745-.474.994l-.7.406c-.203.068-.316.158-.316.226 0 .045.023.067.09.067.158 0 .34-.045.587-.112-.88 2.1-1.806 3.16-2.754 3.16-.339 0-.497-.18-.497-.519 0-.79.61-1.942 1.83-3.432 1.218-1.467 2.212-2.212 2.957-2.212.316 0 .474.18.474.519z" style="-inkscape-font-specification:Ruthie"/><path d="M64.23 12.46c0-.068-.022-.09-.067-.09-.045 0-.09.045-.158.135-.475.722-1.152 1.422-2.032 2.077.564-2.055.97-3.59 1.241-4.628.046-.136.068-.249.068-.34 0-.27-.18-.405-.52-.405-.744 0-1.67.654-2.799 1.964-.767.88-1.467 1.874-2.122 2.957.18-.654.406-1.332.655-2.077.022.045.045.068.067.068.158 0 .226-.27.204-.835.767-2.01 1.151-2.98 1.151-2.89 0-.136-.113-.203-.339-.203-.203 0-.677.135-1.445.429-.248.09-.383.18-.383.293 0 0 .09.18.248.564.158.362.226.587.248.655-.384 1.694-.654 2.98-.835 3.816-.18.835-.316 1.467-.43 1.896v.046c0 .203.046.293.204.293.113 0 .203-.113.271-.361a6.04 6.04 0 0 1 .474-1.31c.384-.722.994-1.535 1.852-2.483.925-1.016 1.693-1.694 2.348-2.01a13.865 13.865 0 0 1-.204 1.942c-.112.655-.248 1.287-.383 1.942-.181.903-.249 1.4-.249 1.467 0 .113.045.18.158.18.136 0 .226-.044.294-.135.948-.7 1.76-1.648 2.416-2.8.045-.067.067-.112.067-.157zm-5.644-3.68l-.203.745-.226-.52a2.34 2.34 0 0 0 .429-.225z" style="-inkscape-font-specification:Ruthie"/><path d="M71.794 8.44c0-.022-.023-.044-.09-.044-.046 0-.136.022-.249.045-1.738.61-2.845.993-3.296 1.129l.27-.542.385-.361c.067-.068.383-.745.948-1.987.564-1.242.835-1.874.835-1.897 0-.158-.158-.225-.474-.225-.474 0-.767.135-.88.406l-.655 1.513-1.49 3.296-.023.045c-.88.18-1.716.271-2.506.271h-.61c-.203.045-.316.18-.316.429 0 .226.09.384.294.474.406.18.813.316 1.219.497.474.203.768.542.903.926-.339.993-.497 1.806-.497 2.46 0 .926.384 1.378 1.13 1.378.338 0 .812-.249 1.422-.723.519-.406.903-.79 1.151-1.151a.52.52 0 0 0 .068-.203c0-.046-.023-.068-.068-.068l-1.016.88c-.655.565-1.196.858-1.603.858-.338 0-.497-.248-.497-.745 0-.835.181-1.716.587-2.686.204-.497.633-1.333 1.242-2.507 2.552-.722 3.816-1.219 3.816-1.467zm-4.877 1.762a28.82 28.82 0 0 0-.768 1.896c-.225-.564-.722-1.038-1.512-1.444a28.948 28.948 0 0 0 2.28-.452z" style="-inkscape-font-specification:Ruthie"/></g></svg>