<svg xmlns="http://www.w3.org/2000/svg" viewBox="0 0 64 64" height="64mm" width="64mm"><g stroke-linejoin="round"><path fill="#00bc8c" stroke="#00bc8c" stroke-width="16" paint-order="markers stroke fill" d="M8 8h48v48H8z"/><g style="line-height:0;-inkscape-font-specification:'Kaushan Script'"><path style="-inkscape-font-specification:Ruthie" d="M56.141 263.52c0-3.76-1.473-6.91-4.47-9.602-2.642-2.337-5.944-3.911-9.805-4.521 1.778-2.337 3.709-3.556 5.842-3.556.813 0 1.677.254 2.49.66.914.508 1.473 1.118 1.676 1.83.102.456.254.66.406.66.051 0 .102-.051.102-.204 0-.355-.05-.71-.203-1.219a4.362 4.362 0 0 0-1.88-2.286c-.914-.508-1.88-.813-2.946-.813-2.591 0-4.979 1.575-7.366 4.674a32.415 32.415 0 0 0-7.468-.711c.051-2.286-.05-4.115-.305-5.588-.05-.153-.101-.254-.152-.254-.102 0-.203.101-.203.355 0 .305 0 .762.05 1.372.051.66.051 1.067.051 1.422 0 .915-.05 1.778-.101 2.693-7.468.254-12.954 2.235-16.561 6.045-1.22 1.27-1.778 2.59-1.778 4.064 0 1.93.864 3.658 2.642 5.182 1.625 1.422 3.403 2.184 5.384 2.336l.102.051c.254 0 .356-.101.356-.254 0-.101-.102-.152-.254-.203-1.067-.203-1.88-.457-2.388-.711-2.794-1.27-4.115-3.2-4.115-5.74 0-1.474.61-2.896 1.829-4.217 3.302-3.505 8.179-5.385 14.732-5.74-.356 4.52-1.27 9.042-2.743 13.614-1.727 5.182-3.81 9.296-6.35 12.294-3.353-1.372-6.045-2.083-7.925-2.083-1.372 0-2.54.254-3.505.813-1.22.66-1.829 1.574-1.829 2.844 0 1.27.66 2.439 1.981 3.506 1.22.965 2.439 1.574 3.76 1.676.558.05 1.219.102 1.879.102 4.216 0 7.417-1.423 9.703-4.318 4.115 1.676 8.026 2.54 11.633 2.54 3.556 0 6.807-.864 9.703-2.54 2.845-1.677 5.029-4.115 6.502-7.265a16.3 16.3 0 0 0 1.524-6.909zm-2.895.507c0 4.42-1.423 8.128-4.318 11.075-2.896 2.895-6.554 4.318-11.024 4.318-3.251 0-6.807-.762-10.617-2.388 1.524-1.727 3.15-4.267 4.826-7.721 2.54-5.03 4.216-8.941 5.385-11.583 1.574-3.556 2.946-6.096 3.962-7.67 3.302.609 6.096 2.235 8.382 4.927 2.286 2.692 3.404 5.69 3.404 9.042zM39.53 249.753c-1.524 1.574-3.353 4.673-5.538 9.398-1.574 3.454-3.048 6.96-4.724 10.414-1.473 3.2-2.896 5.435-4.013 6.604l-1.727-.66c2.59-3.1 4.673-7.214 6.35-12.447 1.473-4.724 2.336-9.347 2.59-13.868h1.067c2.083 0 4.064.203 5.995.559zM24.848 276.88c-.762 1.168-2.082 2.133-3.86 2.946-1.626.711-3.252 1.067-4.826 1.067-1.372 0-2.642-.406-3.861-1.22-1.372-.914-2.032-2.031-2.032-3.301 0-1.016.508-1.727 1.473-2.235a6.426 6.426 0 0 1 2.743-.61c2.083 0 4.725.711 7.874 2.134-2.286 2.54-4.623 3.86-6.96 3.86-.609 0-.863.102-.863.254 0 .204.305.356.965.356 2.642 0 5.182-1.372 7.62-4.115z" font-size="50.8" font-family="Ruthie" transform="matrix(1.18216 0 0 1.18258 -7.365 -279.143)" aria-label="D" font-weight="400" letter-spacing="0" word-spacing="0" fill="#fff" stroke="#fff" stroke-width="2.537"/></g></g></svg>